<?xml version="1.0" encoding="UTF-8"?><svg id="Layer_1" xmlns="http://www.w3.org/2000/svg" viewBox="0 0 1500.75 292.35"><defs><style>.cls-1{stroke-width:0px;}</style></defs><path class="cls-1" d="M535.27,71.12c41.3,0,61.82,22.81,55.15,60.65h-43.31c1.68-14.44-5.85-22.53-21.15-22.53-20.51,0-39.27,19.64-43.91,45.92-3.36,19.06,4,29.74,20.75,29.74,13.28,0,25.74-8.37,33.48-22.81h43.9c-15.13,36.68-49.44,60.94-86.41,60.94-42.74,0-63.4-23.68-56.17-64.69,8.76-49.68,50.9-87.22,97.69-87.22Z"/><path class="cls-1" d="M559.35,252.2h23.68c11.27,0,20.94-5.77,31-20.21l7.66-10.69-6.86-146.13h43.32l-.15,94.15,65.99-94.15h47.07l-130.36,175.88c-18.53,24.83-37.89,41.3-66.2,41.3-10.97,0-19.66-1.44-27.34-3.76l12.19-36.39Z"/><path class="cls-1" d="M740.39,219.57L813.15,1.8h43.03l-30.19,90.97c12.79-13.57,29.23-21.66,49.16-21.66,34.08,0,54.41,27.15,47.48,66.43-8.96,50.83-47.13,85.48-90.44,85.48-19.93,0-37.31-9.52-42.81-22.52l-8.56,19.06h-40.43ZM830.77,185.2c22.23,0,43.89-19.63,48.32-44.76,3.31-18.77-6-31.48-24.48-31.48-22.24,0-43.89,19.65-48.33,44.76-3.31,18.78,6,31.48,24.49,31.48Z"/><path class="cls-1" d="M935.7,158.34c8.76-49.68,50.9-87.22,97.69-87.22s64.35,29.75,48.99,75.96l-3.72,11.26-102.04.58c-2.26,19.35,5.3,28.88,23.79,28.88,13.58,0,25.04-6.06,32.41-16.75h42.16c-15.27,30.9-49.02,51.98-83.09,51.98-42.74,0-63.4-23.68-56.17-64.69ZM985.67,132.06h58.91c5.4-15.89-2.34-25.99-19.96-25.99-15.31,0-29.85,10.4-38.95,25.99Z"/><path class="cls-1" d="M1215.59,115.31h-13.86c-24.83,0-43.96,11.83-53.28,40.14l-21.42,64.12h-43.03l48.28-144.4h40.43l-4.59,21.08c10.58-14.15,26.65-23.39,44.84-23.39,5.49,0,11.17.57,16.11,2.02l-13.49,40.44Z"/><path class="cls-1" d="M1263.37,75.17l4.16-12.13c13.43-40.15,40.25-61.23,77.79-61.23,5.78,0,12.61.58,18.76,1.74l-12.3,36.96h-12.13c-15.02,0-24.61,6.93-29.67,22.53l-4.16,12.13h34.36l-12.09,35.81h-34.08l-36.19,108.6h-42.74l36.47-108.6h-19.93l12.09-35.81h19.63Z"/><path class="cls-1" d="M1289.04,252.2h23.68c11.27,0,20.94-5.77,31-20.21l7.66-10.69-6.86-146.13h43.32l-.15,94.15,65.99-94.15h47.07l-130.36,175.88c-18.53,24.83-37.89,41.3-66.2,41.3-10.97,0-19.66-1.44-27.34-3.76l12.19-36.39Z"/><path class="cls-1" d="M181.83,131.19l-.24.05c1.92,2.06,3.86,4.09,5.78,6.09l1.34,1.39c4.57,4.75,9.23,9.63,13.71,14.7.52-8.13,1.36-16.73,2.52-25.67-7.95.7-15.69,1.73-23.1,3.06,0,.12,0,.25,0,.38Z"/><path class="cls-1" d="M182.98,42.22c-7.67,4.76-13.76,11.13-18.09,18.93-1.3,2.34-2.33,4.88-3.22,7.51,5.49,2.48,11.85,4.64,18.88,6.46,4.07-13.81,9.52-26.99,16.11-38.64-4.76,1.17-9.36,3.07-13.68,5.74Z"/><path class="cls-1" d="M214.22,127.07c-1.71,13.18-2.75,25.66-3.03,36.81l-.11.02c3.97,5.2,7.44,10.32,10.44,15.5,5.33-5.91,11.11-11.63,17.59-17.45l-.88-.13c3.39-10.61,6.53-22.38,9.29-34.75-5.42-.31-10.94-.48-16.57-.48s-11.21.17-16.73.48Z"/><path class="cls-1" d="M254.24,90.38c-5.6.31-11.27.48-16.99.48s-11.33-.17-16.82-.48c-1.01,4.89-1.98,9.83-2.87,14.83-.75,4.28-1.43,8.5-2.06,12.68,5.64-.31,11.33-.48,17.06-.48s11.36.17,16.89.48c.85-4.19,1.66-8.41,2.42-12.68.88-5,1.66-9.94,2.36-14.83Z"/><path class="cls-1" d="M238.87,81.68c5.6,0,11.14-.17,16.61-.47,1.58-12.7,2.55-24.73,2.79-35.36-.1.08-.2.14-.3.22-3.93,3.17-7.37,6.9-10.23,11.08-1.46,2.6-3.82,3.36-5.56,3.23-.75-.07-2.99-.5-3.6-3.17-1.56-4.46-3.73-8.21-6.48-11.33-3.51,10.63-6.78,22.64-9.68,35.33,5.36.3,10.84.47,16.44.47Z"/><path class="cls-1" d="M213.38,80.55c3.38-14.78,7.28-28.63,11.45-40.6-2.72-1.58-5.73-2.86-9.14-3.76-1.79-.47-3.7-.72-5.32-.89-.15-.01-.33-.04-.51-.07h-2.46c-7.56,12.25-13.78,26.61-18.19,41.88,7.51,1.52,15.63,2.68,24.18,3.45Z"/><path class="cls-1" d="M159.29,79.13l-.09,1.4c-.08,1.15-.15,2.31-.2,3.46-.27,7.23.98,14.22,3.72,20.78,2.1,5.03,5.06,9.92,9.3,15.42.22.28.45.55.67.82.37-7.84,1.22-15.85,2.65-24,.75-4.26,1.69-8.48,2.72-12.68-6.83-1.7-13.08-3.71-18.63-6.01l-.14.81Z"/><path class="cls-1" d="M186.79,86.28c-.84,3.56-1.62,7.14-2.25,10.75-1.48,8.42-2.35,16.7-2.63,24.74,7.81-1.4,15.96-2.47,24.32-3.2.66-4.4,1.37-8.85,2.16-13.35.92-5.22,1.93-10.38,3-15.48-8.67-.77-16.91-1.94-24.59-3.45Z"/><path class="cls-1" d="M250.31,152.4c4.97-4.06,9.86-7.89,14.32-11.33l4.9-3.76c2.82-2.16,5.68-4.36,8.52-6.59-6.79-1.28-13.99-2.27-21.5-2.96-1.91,8.56-4.01,16.81-6.25,24.64Z"/><path class="cls-1" d="M120.59,0L0,217.73h359.05L479.64,0H120.59ZM326.28,86.33c-2.9,8.37-7.61,16.53-14,24.25-4.83,5.84-10.6,11.54-18.14,17.94-6.45,5.48-13.2,10.65-19.73,15.66l-4.87,3.74c-9.24,7.12-16.88,13.2-24.19,19.72-8.06,7.19-14.93,14.16-21,21.32-.68.81-2.29,2.7-4.87,2.73h-.06c-2.54,0-3.51-1.85-3.93-2.65-3.73-7.08-8.29-13.98-13.94-21.12-6.19-7.83-13.27-15.19-20.11-22.3l-1.34-1.39c-5.38-5.59-10.94-11.38-15.84-17.71-4.64-6-7.89-11.42-10.24-17.04-3.18-7.62-4.64-15.76-4.32-24.21.05-1.23.13-2.47.21-3.72l.17-2.15,1.63-8.65c1.26-4.6,2.99-8.89,5.18-12.84,5.31-9.57,12.78-17.38,22.19-23.22,6.3-3.9,13.05-6.54,20.06-7.84,1.15-.21,2.29-.36,3.43-.5.63-.08,1.26-.16,1.89-.25l.71-.05,7.79.12c1.93.21,4.23.51,6.55,1.12,11.71,3.09,20.23,9.71,25.41,19.72,2.41-2.76,5.06-5.31,7.92-7.62,7.76-6.28,16.42-10.44,25.72-12.37,1.4-.29,2.8-.48,4.2-.66.63-.08,1.26-.16,1.89-.26l.71-.05,7.37.04,1.46.19c1.47.19,2.94.39,4.37.7,7.98,1.74,14.75,5.4,20.12,10.86,6.62,6.73,10.37,15.22,11.17,25.22.56,7.08-.61,14.69-3.58,23.26Z"/><path class="cls-1" d="M298.1,97.02c-1.27,7.18-2.96,14.26-4.98,21.21,4.91-4.43,8.93-8.53,12.35-12.67,5.59-6.75,9.52-13.55,12.03-20.77.77-2.23,1.35-4.34,1.84-6.41-5.99,2.16-12.52,4.06-19.45,5.69-.46,4.29-1.02,8.6-1.78,12.95Z"/><path class="cls-1" d="M311.46,44.8c-3.64-3.7-8.12-6.32-13.27-7.93,2.41,11.48,3.21,24.41,2.44,37.98,7.22-1.75,13.93-3.82,19.97-6.17.02-1.13.03-2.25-.05-3.34-.65-8.15-3.71-15.06-9.1-20.54Z"/><path class="cls-1" d="M284.1,35.22c-.58.08-1.15.16-1.73.23-1.15.15-2.3.29-3.46.54-3.92.81-7.68,2.13-11.29,3.9-.05,11.98-1.03,25.86-2.87,40.66,9.24-.81,18.16-2.03,26.53-3.66.94-15.19-.22-29.47-3.44-41.67h-3.74Z"/><path class="cls-1" d="M261.06,105.21c-.79,4.5-1.65,8.95-2.55,13.35,8.5.76,16.63,1.9,24.26,3.41,2.59-8.11,4.65-16.46,6.15-24.95.65-3.68,1.14-7.33,1.56-10.95-8.56,1.62-17.6,2.86-26.95,3.66-.74,5.1-1.54,10.26-2.46,15.48Z"/></svg>